# xmcd
#
# Track frame offsets: 
#        150
#        12550
#        26828
#        41004
#        54477
#        74906
#        88328
#        100507
#        112866
#        127824
#        143402
#        156845
#
# Disc length: 2315 seconds
#
# Revision: 0
# Processed by: cddbd v1.5.2PL0 Copyright (c) Steve Scherf et al.
# Submitted via: ExactAudioCopyFreeDBPlugin 1.0
#
DISCID=9e09090c
DTITLE=Bilal - In Another Life
DYEAR=2015
DGENRE=R&B
TTITLE0=Sirens II
TTITLE1=Star Now
TTITLE2=Open Up the Door
TTITLE3=I Really Don't Care
TTITLE4=Pleasure Toy (feat. Big K.R.I.T.)
TTITLE5=Satellites
TTITLE6=Lunatic
TTITLE7=Money Over Love (feat. Kendrick Lamar)
TTITLE8=Love Child
TTITLE9=Holding It Back (feat. Kimbra)
TTITLE10=Spiraling
TTITLE11=Bury Me Next to You
EXTD=
EXTT0=
EXTT1=
EXTT2=
EXTT3=
EXTT4=
EXTT5=
EXTT6=
EXTT7=
EXTT8=
EXTT9=
EXTT10=
EXTT11=
PLAYORDER=
